<svg width="230" height="23" viewBox="0 0 230 23" fill="none" xmlns="http://www.w3.org/2000/svg">
<path d="M8.94141 18.541V5.12891H6.19336L1.02539 10.8711L0.738281 2.39453H8.87305L8.94141 2.44922V2.39453H24.3906L24.1035 10.8711L18.7988 5.12891H16.1465V18.541L20.9863 22H4.26562L8.94141 18.541ZM29.3809 18.6641V10.3379L25.7988 7.27539L35.9023 6.86523V9.76367C36.2578 9.19857 36.6634 8.70182 37.1191 8.27344C37.584 7.84505 38.0762 7.48958 38.5957 7.20703C39.1243 6.91536 39.6712 6.69661 40.2363 6.55078C40.8105 6.40495 41.3848 6.33203 41.959 6.33203C42.7155 6.33203 43.3672 6.45964 43.9141 6.71484C44.4701 6.97005 44.9258 7.33008 45.2812 7.79492C45.6367 8.25065 45.901 8.79297 46.0742 9.42188C46.2474 10.0508 46.334 10.7344 46.334 11.4727C46.334 11.7096 46.3249 11.9512 46.3066 12.1973C46.2884 12.4434 46.252 12.6849 46.1973 12.9219L41.207 13.373C41.2435 13.2272 41.2617 13.0905 41.2617 12.9629C41.2708 12.8262 41.2754 12.694 41.2754 12.5664C41.2754 12.1927 41.2298 11.8509 41.1387 11.541C41.0566 11.2311 40.929 10.9668 40.7559 10.748C40.5918 10.5202 40.3776 10.347 40.1133 10.2285C39.8581 10.1009 39.5573 10.0371 39.2109 10.0371C38.8464 10.0371 38.5137 10.11 38.2129 10.2559C37.9121 10.4017 37.6387 10.5977 37.3926 10.8438C37.1465 11.0898 36.9277 11.377 36.7363 11.7051C36.554 12.0241 36.3991 12.3613 36.2715 12.7168C36.153 13.0632 36.0618 13.4141 35.998 13.7695C35.9342 14.125 35.9023 14.4577 35.9023 14.7676V18.5273L40.6602 22H25.8125L29.3809 18.6641ZM47.7422 18.4727C47.7422 17.7435 47.8926 17.1146 48.1934 16.5859C48.4941 16.0482 48.8997 15.5924 49.4102 15.2188C49.9206 14.8359 50.5176 14.526 51.2012 14.2891C51.8848 14.0521 52.6094 13.8698 53.375 13.7422C54.1406 13.6055 54.9245 13.5143 55.7266 13.4688C56.5378 13.4141 57.3262 13.3867 58.0918 13.3867C58.5202 13.3867 58.9714 13.3958 59.4453 13.4141C59.9284 13.4232 60.4115 13.4368 60.8945 13.4551C60.8763 12.7988 60.8171 12.2155 60.7168 11.7051C60.6257 11.1855 60.4661 10.7526 60.2383 10.4062C60.0195 10.0508 59.7096 9.7819 59.3086 9.59961C58.9167 9.4082 58.4108 9.3125 57.791 9.3125C57.39 9.3125 56.9935 9.36263 56.6016 9.46289C56.2096 9.56315 55.8542 9.72266 55.5352 9.94141C55.2161 10.1602 54.9427 10.4427 54.7148 10.7891C54.4961 11.1263 54.3548 11.541 54.291 12.0332L48.8086 11.2812C48.8086 10.6615 48.9316 10.11 49.1777 9.62695C49.4329 9.13477 49.7793 8.70638 50.2168 8.3418C50.6543 7.9681 51.1693 7.65365 51.7617 7.39844C52.3633 7.14323 53.0059 6.93815 53.6895 6.7832C54.3822 6.62826 55.1022 6.51432 55.8496 6.44141C56.6061 6.36849 57.3581 6.33203 58.1055 6.33203C59.0078 6.33203 59.8691 6.37305 60.6895 6.45508C61.5189 6.52799 62.2891 6.66471 63 6.86523C63.7109 7.06576 64.3535 7.33464 64.9277 7.67188C65.5111 8.00911 66.0078 8.4375 66.418 8.95703C66.8281 9.47656 67.1426 10.0964 67.3613 10.8164C67.5892 11.5365 67.7031 12.375 67.7031 13.332V18.1445C67.7031 18.8737 67.8809 19.3841 68.2363 19.6758C68.6009 19.9674 69.0931 20.1133 69.7129 20.1133V21.6855C69.6309 21.7676 69.4896 21.8587 69.2891 21.959C69.0977 22.0501 68.8424 22.1367 68.5234 22.2188C68.2135 22.3099 67.8444 22.3828 67.416 22.4375C66.9876 22.5013 66.4954 22.5332 65.9395 22.5332C65.265 22.5332 64.6589 22.4967 64.1211 22.4238C63.5833 22.36 63.1139 22.2415 62.7129 22.0684C62.321 21.9043 61.9928 21.6764 61.7285 21.3848C61.4642 21.0931 61.2637 20.724 61.127 20.2773C60.6712 20.6784 60.1562 21.0202 59.582 21.3027C59.0078 21.5853 58.3971 21.8177 57.75 22C57.112 22.1823 56.4512 22.3145 55.7676 22.3965C55.0931 22.4876 54.4277 22.5332 53.7715 22.5332C53.334 22.5332 52.8828 22.5104 52.418 22.4648C51.9531 22.4193 51.4974 22.3372 51.0508 22.2188C50.6042 22.1094 50.1803 21.959 49.7793 21.7676C49.3783 21.5671 49.0273 21.3164 48.7266 21.0156C48.4258 20.7148 48.1842 20.3548 48.002 19.9355C47.8288 19.5163 47.7422 19.0286 47.7422 18.4727ZM54.8105 17.8711C54.8105 18.1172 54.8743 18.3405 55.002 18.541C55.1296 18.7415 55.3027 18.9102 55.5215 19.0469C55.7402 19.1836 55.9954 19.2884 56.2871 19.3613C56.5788 19.4342 56.8887 19.4707 57.2168 19.4707C57.554 19.4707 57.9277 19.4342 58.3379 19.3613C58.748 19.2793 59.1354 19.1471 59.5 18.9648C59.8737 18.7826 60.1927 18.5456 60.457 18.2539C60.7214 17.9531 60.8717 17.5885 60.9082 17.1602V15.7656C60.7806 15.7565 60.6576 15.752 60.5391 15.752C60.4297 15.752 60.3249 15.752 60.2246 15.752C59.2493 15.752 58.4199 15.8021 57.7363 15.9023C57.0527 15.9935 56.4922 16.1302 56.0547 16.3125C55.6263 16.4948 55.3118 16.7181 55.1113 16.9824C54.9108 17.2467 54.8105 17.543 54.8105 17.8711ZM73.7734 10.3516L69.918 6.86523H82.3867L80.8691 9.02539L84.5469 18.5547L87.4043 9.58594L85.2715 6.86523H96.0586L92.5176 9.69531L87.459 22H79.6797L73.7734 10.3516ZM96.9609 14.6582C96.9609 13.5462 97.1204 12.5664 97.4395 11.7188C97.7676 10.8711 98.2051 10.1419 98.752 9.53125C99.3079 8.91146 99.9505 8.39648 100.68 7.98633C101.418 7.57617 102.202 7.24805 103.031 7.00195C103.861 6.75586 104.713 6.58268 105.588 6.48242C106.472 6.38216 107.329 6.33203 108.158 6.33203C109.48 6.33203 110.71 6.47786 111.85 6.76953C112.998 7.0612 113.992 7.5306 114.83 8.17773C115.669 8.82487 116.325 9.67708 116.799 10.7344C117.282 11.7826 117.523 13.0632 117.523 14.5762H104.166C104.202 15.5241 104.362 16.3079 104.645 16.9277C104.936 17.5384 105.31 18.026 105.766 18.3906C106.221 18.7461 106.741 18.9967 107.324 19.1426C107.908 19.2884 108.509 19.3613 109.129 19.3613C109.685 19.3613 110.286 19.3294 110.934 19.2656C111.581 19.2018 112.228 19.0833 112.875 18.9102C113.522 18.7279 114.142 18.4818 114.734 18.1719C115.327 17.862 115.842 17.4564 116.279 16.9551L117.674 18.0488C117.446 18.6048 117.127 19.1016 116.717 19.5391C116.307 19.9766 115.837 20.3639 115.309 20.7012C114.78 21.0293 114.206 21.3118 113.586 21.5488C112.975 21.7767 112.346 21.9635 111.699 22.1094C111.052 22.2552 110.405 22.36 109.758 22.4238C109.111 22.4967 108.491 22.5332 107.898 22.5332C106.23 22.5332 104.722 22.36 103.373 22.0137C102.033 21.6673 100.885 21.1615 99.9277 20.4961C98.9798 19.8216 98.2461 18.9967 97.7266 18.0215C97.2161 17.0371 96.9609 15.916 96.9609 14.6582ZM110.906 12.4434C110.906 11.7689 110.842 11.2038 110.715 10.748C110.596 10.2832 110.414 9.90951 110.168 9.62695C109.922 9.3444 109.612 9.14388 109.238 9.02539C108.874 8.89779 108.445 8.83398 107.953 8.83398C106.914 8.83398 106.089 9.14844 105.479 9.77734C104.868 10.4062 104.467 11.2949 104.275 12.4434H110.906ZM123.225 18.6641V3.81641L119.643 0.753906L129.609 0.34375V18.6641L133.314 22H119.52L123.225 18.6641Z" fill="black"/>
<path d="M137.854 18.5273V5.86719L134.012 2.39453H158.854L158.58 9.17578L153.125 5.52539H145.059V10.0508H153.289V13.0586H145.059V18.8691H153.125L158.717 15.5332V22H134.012L137.854 18.5273ZM161.848 18.4727C161.848 17.7435 161.998 17.1146 162.299 16.5859C162.6 16.0482 163.005 15.5924 163.516 15.2188C164.026 14.8359 164.623 14.526 165.307 14.2891C165.99 14.0521 166.715 13.8698 167.48 13.7422C168.246 13.6055 169.03 13.5143 169.832 13.4688C170.643 13.4141 171.432 13.3867 172.197 13.3867C172.626 13.3867 173.077 13.3958 173.551 13.4141C174.034 13.4232 174.517 13.4368 175 13.4551C174.982 12.7988 174.923 12.2155 174.822 11.7051C174.731 11.1855 174.572 10.7526 174.344 10.4062C174.125 10.0508 173.815 9.7819 173.414 9.59961C173.022 9.4082 172.516 9.3125 171.896 9.3125C171.495 9.3125 171.099 9.36263 170.707 9.46289C170.315 9.56315 169.96 9.72266 169.641 9.94141C169.322 10.1602 169.048 10.4427 168.82 10.7891C168.602 11.1263 168.46 11.541 168.396 12.0332L162.914 11.2812C162.914 10.6615 163.037 10.11 163.283 9.62695C163.538 9.13477 163.885 8.70638 164.322 8.3418C164.76 7.9681 165.275 7.65365 165.867 7.39844C166.469 7.14323 167.111 6.93815 167.795 6.7832C168.488 6.62826 169.208 6.51432 169.955 6.44141C170.712 6.36849 171.464 6.33203 172.211 6.33203C173.113 6.33203 173.975 6.37305 174.795 6.45508C175.624 6.52799 176.395 6.66471 177.105 6.86523C177.816 7.06576 178.459 7.33464 179.033 7.67188C179.617 8.00911 180.113 8.4375 180.523 8.95703C180.934 9.47656 181.248 10.0964 181.467 10.8164C181.695 11.5365 181.809 12.375 181.809 13.332V18.1445C181.809 18.8737 181.986 19.3841 182.342 19.6758C182.706 19.9674 183.199 20.1133 183.818 20.1133V21.6855C183.736 21.7676 183.595 21.8587 183.395 21.959C183.203 22.0501 182.948 22.1367 182.629 22.2188C182.319 22.3099 181.95 22.3828 181.521 22.4375C181.093 22.5013 180.601 22.5332 180.045 22.5332C179.37 22.5332 178.764 22.4967 178.227 22.4238C177.689 22.36 177.219 22.2415 176.818 22.0684C176.426 21.9043 176.098 21.6764 175.834 21.3848C175.57 21.0931 175.369 20.724 175.232 20.2773C174.777 20.6784 174.262 21.0202 173.688 21.3027C173.113 21.5853 172.503 21.8177 171.855 22C171.217 22.1823 170.557 22.3145 169.873 22.3965C169.199 22.4876 168.533 22.5332 167.877 22.5332C167.439 22.5332 166.988 22.5104 166.523 22.4648C166.059 22.4193 165.603 22.3372 165.156 22.2188C164.71 22.1094 164.286 21.959 163.885 21.7676C163.484 21.5671 163.133 21.3164 162.832 21.0156C162.531 20.7148 162.29 20.3548 162.107 19.9355C161.934 19.5163 161.848 19.0286 161.848 18.4727ZM168.916 17.8711C168.916 18.1172 168.98 18.3405 169.107 18.541C169.235 18.7415 169.408 18.9102 169.627 19.0469C169.846 19.1836 170.101 19.2884 170.393 19.3613C170.684 19.4342 170.994 19.4707 171.322 19.4707C171.66 19.4707 172.033 19.4342 172.443 19.3613C172.854 19.2793 173.241 19.1471 173.605 18.9648C173.979 18.7826 174.298 18.5456 174.562 18.2539C174.827 17.9531 174.977 17.5885 175.014 17.1602V15.7656C174.886 15.7565 174.763 15.752 174.645 15.752C174.535 15.752 174.43 15.752 174.33 15.752C173.355 15.752 172.525 15.8021 171.842 15.9023C171.158 15.9935 170.598 16.1302 170.16 16.3125C169.732 16.4948 169.417 16.7181 169.217 16.9824C169.016 17.2467 168.916 17.543 168.916 17.8711ZM187.127 16.4219C187.82 16.8776 188.562 17.3014 189.355 17.6934C190.158 18.0762 190.987 18.4134 191.844 18.7051C192.701 18.9876 193.576 19.2109 194.469 19.375C195.362 19.5391 196.255 19.6211 197.148 19.6211C197.486 19.6211 197.818 19.5983 198.146 19.5527C198.484 19.5072 198.78 19.4388 199.035 19.3477C199.299 19.2474 199.509 19.1198 199.664 18.9648C199.828 18.8008 199.91 18.6048 199.91 18.377C199.91 18.1855 199.846 18.0169 199.719 17.8711C199.6 17.7161 199.368 17.5749 199.021 17.4473C198.675 17.3197 198.188 17.2057 197.559 17.1055C196.939 17.0052 196.128 16.9141 195.125 16.832C194.451 16.7773 193.771 16.709 193.088 16.627C192.404 16.5358 191.743 16.4128 191.105 16.2578C190.477 16.1029 189.884 15.9023 189.328 15.6562C188.781 15.4102 188.303 15.1094 187.893 14.7539C187.492 14.3893 187.173 13.9564 186.936 13.4551C186.699 12.9538 186.58 12.3659 186.58 11.6914C186.58 10.8164 186.79 10.0462 187.209 9.38086C187.628 8.71549 188.193 8.15951 188.904 7.71289C189.624 7.25716 190.458 6.91536 191.406 6.6875C192.354 6.45052 193.357 6.33203 194.414 6.33203C195.553 6.33203 196.679 6.46875 197.791 6.74219C198.912 7.00651 200.02 7.38932 201.113 7.89062L204.695 6.41406V11.8281C203.939 11.3815 203.155 10.9896 202.344 10.6523C201.542 10.306 200.74 10.0189 199.938 9.79102C199.145 9.56315 198.365 9.39453 197.6 9.28516C196.843 9.16667 196.137 9.10742 195.48 9.10742C195.043 9.10742 194.646 9.13932 194.291 9.20312C193.936 9.26693 193.626 9.35352 193.361 9.46289C193.106 9.57227 192.906 9.69987 192.76 9.8457C192.623 9.99154 192.555 10.1465 192.555 10.3105C192.555 10.4746 192.614 10.6204 192.732 10.748C192.86 10.8757 193.106 10.9987 193.471 11.1172C193.844 11.2266 194.368 11.3359 195.043 11.4453C195.727 11.5456 196.62 11.6504 197.723 11.7598C198.807 11.8691 199.846 12.0332 200.84 12.252C201.842 12.4616 202.727 12.7624 203.492 13.1543C204.258 13.5371 204.868 14.0384 205.324 14.6582C205.78 15.2689 206.008 16.0345 206.008 16.9551C206.008 17.6204 205.885 18.222 205.639 18.7598C205.402 19.2975 205.078 19.7715 204.668 20.1816C204.258 20.5918 203.779 20.9473 203.232 21.248C202.686 21.5397 202.102 21.7812 201.482 21.9727C200.872 22.1641 200.243 22.3053 199.596 22.3965C198.949 22.4876 198.32 22.5332 197.709 22.5332C196.506 22.5332 195.316 22.3828 194.141 22.082C192.965 21.7812 191.821 21.3392 190.709 20.7559L187.127 22.3555V16.4219ZM208.77 14.6582C208.77 13.5462 208.929 12.5664 209.248 11.7188C209.576 10.8711 210.014 10.1419 210.561 9.53125C211.117 8.91146 211.759 8.39648 212.488 7.98633C213.227 7.57617 214.01 7.24805 214.84 7.00195C215.669 6.75586 216.521 6.58268 217.396 6.48242C218.281 6.38216 219.137 6.33203 219.967 6.33203C221.288 6.33203 222.519 6.47786 223.658 6.76953C224.807 7.0612 225.8 7.5306 226.639 8.17773C227.477 8.82487 228.133 9.67708 228.607 10.7344C229.09 11.7826 229.332 13.0632 229.332 14.5762H215.975C216.011 15.5241 216.171 16.3079 216.453 16.9277C216.745 17.5384 217.118 18.026 217.574 18.3906C218.03 18.7461 218.549 18.9967 219.133 19.1426C219.716 19.2884 220.318 19.3613 220.938 19.3613C221.493 19.3613 222.095 19.3294 222.742 19.2656C223.389 19.2018 224.036 19.0833 224.684 18.9102C225.331 18.7279 225.951 18.4818 226.543 18.1719C227.135 17.862 227.65 17.4564 228.088 16.9551L229.482 18.0488C229.255 18.6048 228.936 19.1016 228.525 19.5391C228.115 19.9766 227.646 20.3639 227.117 20.7012C226.589 21.0293 226.014 21.3118 225.395 21.5488C224.784 21.7767 224.155 21.9635 223.508 22.1094C222.861 22.2552 222.214 22.36 221.566 22.4238C220.919 22.4967 220.299 22.5332 219.707 22.5332C218.039 22.5332 216.531 22.36 215.182 22.0137C213.842 21.6673 212.693 21.1615 211.736 20.4961C210.788 19.8216 210.055 18.9967 209.535 18.0215C209.025 17.0371 208.77 15.916 208.77 14.6582ZM222.715 12.4434C222.715 11.7689 222.651 11.2038 222.523 10.748C222.405 10.2832 222.223 9.90951 221.977 9.62695C221.73 9.3444 221.421 9.14388 221.047 9.02539C220.682 8.89779 220.254 8.83398 219.762 8.83398C218.723 8.83398 217.898 9.14844 217.287 9.77734C216.676 10.4062 216.275 11.2949 216.084 12.4434H222.715Z" fill="#F4C430"/>
</svg>
